<?xml version="1.0" encoding="UTF-8"?>
<svg xmlns="http://www.w3.org/2000/svg" viewBox="0 0 837.68 695.45">
  <defs>
    <style>
      .cls-1 {
        opacity: .7;
      }

      .cls-1, .cls-2, .cls-3 {
        fill: none;
      }

      .cls-2 {
        stroke: #fff;
        stroke-width: 8px;
      }

      .cls-2, .cls-4, .cls-3, .cls-5 {
        font-family: AcuminConcept-ExtraCondUltraBlack, 'Acumin Variable Concept';
        font-size: 600px;
        font-variation-settings: 'wght' 900, 'wdth' 50, 'slnt' 0;
        font-weight: 800;
      }

      .cls-6 {
        fill: #fff;
      }

      .cls-3 {
        stroke: #000;
        stroke-width: 12px;
      }

      .cls-5 {
        fill: #549670;
      }

      .cls-7 {
        font-family: AcuminVariableConcept, 'Acumin Variable Concept';
        font-size: 70px;
        font-variation-settings: 'wght' 194, 'wdth' 100, 'slnt' 0;
      }
    </style>
  </defs>
  <g id="Layer_3" data-name="Layer 3">
    <g>
      <g>
        <text class="cls-3" transform="translate(18 532.26)"><tspan x="0" y="0">D</tspan></text>
        <text class="cls-3" transform="translate(16 530.26)"><tspan x="0" y="0">D</tspan></text>
        <text class="cls-3" transform="translate(14 528.26)"><tspan x="0" y="0">D</tspan></text>
        <text class="cls-3" transform="translate(12 526.26)"><tspan x="0" y="0">D</tspan></text>
        <text class="cls-3" transform="translate(10 524.26)"><tspan x="0" y="0">D</tspan></text>
        <text class="cls-3" transform="translate(8 522.26)"><tspan x="0" y="0">D</tspan></text>
        <text class="cls-3" transform="translate(6 520.26)"><tspan x="0" y="0">D</tspan></text>
      </g>
      <text class="cls-2" transform="translate(6 520.26)"><tspan x="0" y="0">D</tspan></text>
      <text class="cls-4" transform="translate(6 520.26)"><tspan x="0" y="0">D</tspan></text>
      <text class="cls-5" transform="translate(6 520.26)"><tspan x="0" y="0">D</tspan></text>
    </g>
    <g>
      <g>
        <text class="cls-4" transform="translate(575.28 528.6)"><tspan x="0" y="0">S</tspan></text>
        <g class="cls-1">
          <text class="cls-3" transform="translate(575.28 528.6)"><tspan x="0" y="0">S</tspan></text>
        </g>
        <text class="cls-2" transform="translate(575.28 528.6)"><tspan x="0" y="0">S</tspan></text>
        <text class="cls-5" transform="translate(575.28 528.6)"><tspan x="0" y="0">S</tspan></text>
      </g>
      <g>
        <text class="cls-4" transform="translate(573.28 526.6)"><tspan x="0" y="0">S</tspan></text>
        <g class="cls-1">
          <text class="cls-3" transform="translate(573.28 526.6)"><tspan x="0" y="0">S</tspan></text>
        </g>
        <text class="cls-2" transform="translate(573.28 526.6)"><tspan x="0" y="0">S</tspan></text>
        <text class="cls-5" transform="translate(573.28 526.6)"><tspan x="0" y="0">S</tspan></text>
      </g>
      <g>
        <text class="cls-4" transform="translate(571.28 524.6)"><tspan x="0" y="0">S</tspan></text>
        <g class="cls-1">
          <text class="cls-3" transform="translate(571.28 524.6)"><tspan x="0" y="0">S</tspan></text>
        </g>
        <text class="cls-2" transform="translate(571.28 524.6)"><tspan x="0" y="0">S</tspan></text>
        <text class="cls-5" transform="translate(571.28 524.6)"><tspan x="0" y="0">S</tspan></text>
      </g>
      <g>
        <text class="cls-4" transform="translate(569.28 522.6)"><tspan x="0" y="0">S</tspan></text>
        <g class="cls-1">
          <text class="cls-3" transform="translate(569.28 522.6)"><tspan x="0" y="0">S</tspan></text>
        </g>
        <text class="cls-2" transform="translate(569.28 522.6)"><tspan x="0" y="0">S</tspan></text>
        <text class="cls-5" transform="translate(569.28 522.6)"><tspan x="0" y="0">S</tspan></text>
      </g>
      <g>
        <text class="cls-4" transform="translate(567.28 520.6)"><tspan x="0" y="0">S</tspan></text>
        <g class="cls-1">
          <text class="cls-3" transform="translate(567.28 520.6)"><tspan x="0" y="0">S</tspan></text>
        </g>
        <text class="cls-2" transform="translate(567.28 520.6)"><tspan x="0" y="0">S</tspan></text>
        <text class="cls-5" transform="translate(567.28 520.6)"><tspan x="0" y="0">S</tspan></text>
      </g>
      <g>
        <text class="cls-4" transform="translate(565.28 518.6)"><tspan x="0" y="0">S</tspan></text>
        <g class="cls-1">
          <text class="cls-3" transform="translate(565.28 518.6)"><tspan x="0" y="0">S</tspan></text>
        </g>
        <text class="cls-2" transform="translate(565.28 518.6)"><tspan x="0" y="0">S</tspan></text>
        <text class="cls-5" transform="translate(565.28 518.6)"><tspan x="0" y="0">S</tspan></text>
      </g>
      <g>
        <text class="cls-4" transform="translate(563.28 516.6)"><tspan x="0" y="0">S</tspan></text>
        <g class="cls-1">
          <text class="cls-3" transform="translate(563.28 516.6)"><tspan x="0" y="0">S</tspan></text>
        </g>
        <text class="cls-2" transform="translate(563.28 516.6)"><tspan x="0" y="0">S</tspan></text>
        <text class="cls-5" transform="translate(563.28 516.6)"><tspan x="0" y="0">S</tspan></text>
      </g>
    </g>
    <g>
      <text class="cls-4" transform="translate(264.68 518.3)"><tspan x="0" y="0">&amp;</tspan></text>
      <g>
        <text class="cls-3" transform="translate(276.68 530.3)"><tspan x="0" y="0">&amp;</tspan></text>
        <text class="cls-3" transform="translate(274.68 528.3)"><tspan x="0" y="0">&amp;</tspan></text>
        <text class="cls-3" transform="translate(272.68 526.3)"><tspan x="0" y="0">&amp;</tspan></text>
        <text class="cls-3" transform="translate(270.68 524.3)"><tspan x="0" y="0">&amp;</tspan></text>
        <text class="cls-3" transform="translate(268.68 522.3)"><tspan x="0" y="0">&amp;</tspan></text>
        <text class="cls-3" transform="translate(266.68 520.3)"><tspan x="0" y="0">&amp;</tspan></text>
        <text class="cls-3" transform="translate(264.68 518.3)"><tspan x="0" y="0">&amp;</tspan></text>
      </g>
      <text class="cls-2" transform="translate(264.68 518.3)"><tspan x="0" y="0">&amp;</tspan></text>
      <text class="cls-5" transform="translate(264.68 518.3)"><tspan x="0" y="0">&amp;</tspan></text>
    </g>
  </g>
  <g id="Layer_4" data-name="Layer 4">
    <rect class="cls-6" x="20.21" y="300.18" width="817.47" height="72.04"/>
  </g>
  <g id="Layer_5" data-name="Layer 5">
    <text class="cls-7" transform="translate(40.14 362.3)"><tspan x="0" y="0">DROP</tspan></text>
    <text class="cls-7" transform="translate(340.95 362.3)"><tspan x="0" y="0">AND</tspan></text>
    <text class="cls-7" transform="translate(589.27 362.3)"><tspan x="0" y="0">SHOP</tspan></text>
  </g>
</svg>